<?xml version="1.0" standalone="no"?>
<!DOCTYPE svg PUBLIC "-//W3C//DTD SVG 20010904//EN"
 "http://www.w3.org/TR/2001/REC-SVG-20010904/DTD/svg10.dtd">
<svg version="1.0" xmlns="http://www.w3.org/2000/svg"
 width="500.000000pt" height="500.000000pt" viewBox="0 0 500.000000 500.000000"
 preserveAspectRatio="xMidYMid meet">

<g transform="translate(0.000000,500.000000) scale(0.100000,-0.100000)"
fill="#000000" stroke="none">
<path d="M2576 4109 c-8 -25 -65 -434 -61 -438 5 -5 89 -20 93 -17 4 5 31 218
34 270 3 48 5 44 56 -111 30 -88 57 -165 61 -172 4 -6 30 -14 58 -17 l50 -6 6
33 c4 19 18 119 33 223 30 209 30 206 -37 206 l-36 0 -11 -97 c-7 -54 -15
-125 -19 -158 -4 -33 -9 -51 -11 -40 -3 16 -102 315 -106 322 -1 1 -25 5 -54
9 -40 5 -53 3 -56 -7z"/>
<path d="M2165 4094 c-114 -27 -167 -95 -166 -214 0 -113 43 -195 123 -236 76
-38 160 -28 224 28 43 38 60 70 69 129 15 98 -39 230 -110 270 -32 19 -107 31
-140 23z m80 -106 c38 -29 65 -93 65 -153 0 -134 -117 -169 -184 -55 -28 48
-29 159 -1 190 39 44 80 50 120 18z"/>
<path d="M1697 3935 c-20 -14 -37 -33 -37 -43 0 -9 14 -75 30 -146 17 -72 30
-132 30 -134 0 -3 -19 13 -42 34 -24 22 -76 66 -117 98 l-74 59 -44 -24 c-25
-13 -47 -27 -49 -32 -5 -6 41 -85 188 -324 l44 -71 37 21 c20 11 37 24 37 29
0 11 -74 131 -128 208 l-46 65 61 -53 c34 -29 87 -72 118 -96 50 -39 58 -43
80 -32 14 6 25 18 25 26 0 17 -45 235 -55 265 -3 11 1 7 10 -10 51 -92 138
-236 145 -240 8 -5 80 32 80 41 0 15 -234 384 -244 384 -6 0 -28 -11 -49 -25z"/>
<path d="M3094 3833 c-66 -71 -139 -149 -162 -174 l-41 -45 47 -23 46 -23 37
43 37 44 62 -30 62 -29 -7 -45 c-4 -24 -9 -49 -11 -55 -5 -13 83 -62 93 -52 5
5 73 436 73 461 0 8 -94 55 -111 55 -3 0 -59 -57 -125 -127z m127 -57 c-11
-48 -21 -90 -24 -92 -10 -10 -77 30 -73 43 6 14 109 141 113 138 2 -1 -6 -41
-16 -89z"/>
<path d="M3555 3718 c-15 -18 -80 -89 -144 -157 -64 -68 -119 -129 -123 -136
-4 -7 7 -26 28 -46 l35 -34 59 61 59 61 20 -21 c19 -21 19 -22 2 -86 -34 -123
-35 -112 14 -153 l44 -37 22 100 22 100 48 0 c40 0 55 6 84 31 20 18 41 41 47
52 16 31 11 94 -11 130 -18 29 -162 167 -174 167 -3 0 -17 -15 -32 -32z m99
-138 c43 -48 44 -63 10 -96 -31 -32 -65 -27 -108 16 l-29 28 38 46 c20 25 41
46 45 46 4 0 24 -18 44 -40z"/>
<path d="M2375 3570 c-163 -15 -351 -76 -495 -160 -458 -268 -699 -798 -594
-1307 8 -40 12 -78 9 -83 -3 -6 -2 -10 3 -10 4 0 16 -26 26 -57 121 -384 457
-701 856 -807 413 -111 854 1 1165 296 253 239 387 544 388 878 0 355 -118
645 -362 891 -213 213 -454 328 -750 358 -111 12 -125 12 -246 1z m378 -71
c393 -86 720 -371 857 -748 17 -45 30 -87 29 -94 0 -7 -2 -7 -5 -2 -2 6 -75 9
-198 7 l-194 -4 -56 71 c-177 221 -334 314 -581 342 -244 29 -442 -45 -621
-233 -56 -58 -154 -184 -154 -198 0 -4 -108 -7 -240 -7 -132 1 -240 4 -240 5
0 2 7 29 16 60 61 208 234 451 423 593 168 125 375 207 581 229 104 11 278 2
383 -21z m-93 -464 c219 -46 365 -138 491 -311 47 -64 66 -83 91 -88 17 -3
115 -6 219 -6 119 0 189 -4 189 -10 0 -5 -7 -10 -15 -10 -8 0 -15 -5 -15 -11
0 -6 9 -9 19 -6 17 4 20 -4 30 -72 19 -141 21 -196 11 -294 -14 -137 -28 -187
-51 -187 -11 0 -19 -4 -19 -10 0 -5 7 -10 15 -10 8 0 15 -4 15 -9 0 -11 -149
-21 -314 -21 l-131 -1 -34 -59 c-19 -33 -59 -85 -90 -115 -190 -187 -414 -258
-666 -210 -227 43 -330 109 -522 337 -52 62 -71 77 -101 83 -20 4 -125 5 -232
4 l-195 -4 3 23 c2 12 -1 22 -6 22 -28 0 -48 316 -29 452 6 43 12 56 23 51 9
-3 14 1 14 12 0 9 -5 13 -11 9 -7 -4 -10 -1 -7 6 3 11 40 13 169 12 90 -1 198
-5 239 -8 l75 -5 50 68 c227 306 491 430 785 368z m-837 -1051 c14 -25 104
-134 150 -183 144 -153 329 -232 552 -234 129 -2 209 16 331 73 152 70 251
153 330 276 l33 51 143 3 c79 1 170 3 203 4 73 1 73 2 6 -139 -64 -134 -127
-222 -235 -330 -113 -112 -198 -173 -329 -235 -363 -173 -784 -150 -1137 63
-117 70 -265 213 -350 337 -47 70 -115 202 -140 274 l-19 56 177 2 c212 4 274
-1 285 -18z"/>
<path d="M2396 3023 c-11 -11 -6 -23 9 -23 8 0 15 4 15 9 0 13 -16 22 -24 14z"/>
<path d="M2450 3021 c0 -6 5 -13 10 -16 6 -3 10 1 10 9 0 9 -4 16 -10 16 -5 0
-10 -4 -10 -9z"/>
<path d="M2500 3021 c0 -5 7 -11 15 -15 9 -3 15 0 15 9 0 8 -7 15 -15 15 -8 0
-15 -4 -15 -9z"/>
<path d="M2552 3018 c5 -15 28 -18 29 -3 0 6 -7 12 -17 13 -10 3 -15 -1 -12
-10z"/>
<path d="M2617 3023 c-12 -11 -8 -23 8 -23 8 0 15 7 15 15 0 16 -12 20 -23 8z"/>
<path d="M2346 3013 c-11 -11 -6 -23 9 -23 8 0 15 4 15 9 0 13 -16 22 -24 14z"/>
<path d="M2665 3000 c3 -5 10 -10 16 -10 5 0 9 5 9 10 0 6 -7 10 -16 10 -8 0
-12 -4 -9 -10z"/>
<path d="M2710 2990 c0 -5 7 -10 15 -10 8 0 15 5 15 10 0 6 -7 10 -15 10 -8 0
-15 -4 -15 -10z"/>
<path d="M2290 2980 c0 -5 7 -10 15 -10 8 0 15 5 15 10 0 6 -7 10 -15 10 -8 0
-15 -4 -15 -10z"/>
<path d="M2760 2975 c0 -9 5 -15 11 -13 6 2 11 8 11 13 0 5 -5 11 -11 13 -6 2
-11 -4 -11 -13z"/>
<path d="M2244 2966 c-8 -22 3 -33 18 -18 9 9 9 15 0 24 -9 9 -13 7 -18 -6z"/>
<path d="M2805 2961 c-7 -12 12 -24 25 -16 11 7 4 25 -10 25 -5 0 -11 -4 -15
-9z"/>
<path d="M2195 2941 c-6 -11 9 -23 19 -14 9 9 7 23 -3 23 -6 0 -12 -4 -16 -9z"/>
<path d="M2866 2943 c-11 -11 -6 -23 9 -23 8 0 15 4 15 9 0 13 -16 22 -24 14z"/>
<path d="M2140 2911 c0 -6 5 -13 10 -16 6 -3 10 1 10 9 0 9 -4 16 -10 16 -5 0
-10 -4 -10 -9z"/>
<path d="M2902 2908 c6 -18 28 -21 28 -4 0 9 -7 16 -16 16 -9 0 -14 -5 -12
-12z"/>
<path d="M2097 2883 c-12 -11 -8 -23 8 -23 8 0 15 7 15 15 0 16 -12 20 -23 8z"/>
<path d="M2950 2880 c0 -5 5 -10 10 -10 6 0 10 5 10 10 0 6 -4 10 -10 10 -5 0
-10 -4 -10 -10z"/>
<path d="M2060 2840 c0 -5 5 -10 10 -10 6 0 10 5 10 10 0 6 -4 10 -10 10 -5 0
-10 -4 -10 -10z"/>
<path d="M2985 2840 c3 -5 10 -10 16 -10 5 0 9 5 9 10 0 6 -7 10 -16 10 -8 0
-12 -4 -9 -10z"/>
<path d="M2020 2804 c0 -8 5 -12 10 -9 6 3 10 10 10 16 0 5 -4 9 -10 9 -5 0
-10 -7 -10 -16z"/>
<path d="M3030 2810 c0 -5 5 -10 10 -10 6 0 10 5 10 10 0 6 -4 10 -10 10 -5 0
-10 -4 -10 -10z"/>
<path d="M1982 2769 c2 -6 8 -10 13 -10 5 0 11 4 13 10 2 6 -4 11 -13 11 -9 0
-15 -5 -13 -11z"/>
<path d="M3060 2770 c0 -5 7 -10 15 -10 8 0 15 5 15 10 0 6 -7 10 -15 10 -8 0
-15 -4 -15 -10z"/>
<path d="M1950 2730 c0 -5 5 -10 10 -10 6 0 10 5 10 10 0 6 -4 10 -10 10 -5 0
-10 -4 -10 -10z"/>
<path d="M3090 2725 c0 -8 7 -15 15 -15 8 0 15 7 15 15 0 8 -7 15 -15 15 -8 0
-15 -7 -15 -15z"/>
<path d="M1915 2690 c-3 -5 1 -10 9 -10 9 0 16 5 16 10 0 6 -4 10 -9 10 -6 0
-13 -4 -16 -10z"/>
<path d="M3120 2680 c0 -5 5 -10 10 -10 6 0 10 5 10 10 0 6 -4 10 -10 10 -5 0
-10 -4 -10 -10z"/>
<path d="M2870 2654 c-116 -31 -222 -124 -304 -266 -25 -42 -29 -46 -43 -33
-16 17 -27 20 -18 6 3 -5 2 -12 -3 -15 -5 -3 -25 23 -44 58 -52 89 -150 186
-223 221 -95 45 -225 45 -225 0 0 -7 14 -36 31 -64 24 -38 33 -67 40 -126 12
-111 32 -146 94 -166 49 -15 50 -16 19 -22 -69 -13 -73 -36 -42 -202 11 -58
19 -76 46 -102 19 -17 46 -35 62 -38 58 -13 142 45 211 147 22 32 43 58 48 58
5 0 27 -29 50 -65 61 -93 145 -152 202 -140 37 8 103 70 106 99 1 11 8 59 16
106 18 99 10 123 -46 138 -20 6 -26 11 -17 14 8 3 28 9 44 14 48 15 67 52 78
150 8 74 15 98 43 143 18 29 31 59 28 67 -5 12 -64 35 -88 33 -5 0 -35 -7 -65
-15z"/>
<path d="M1885 2650 c-3 -5 1 -10 9 -10 9 0 16 5 16 10 0 6 -4 10 -9 10 -6 0
-13 -4 -16 -10z"/>
<path d="M3150 2635 c0 -9 5 -15 11 -13 6 2 11 8 11 13 0 5 -5 11 -11 13 -6 2
-11 -4 -11 -13z"/>
<path d="M1865 2610 c-3 -5 -1 -10 4 -10 6 0 11 5 11 10 0 6 -2 10 -4 10 -3 0
-8 -4 -11 -10z"/>
<path d="M3180 2594 c0 -9 5 -14 12 -12 18 6 21 28 4 28 -9 0 -16 -7 -16 -16z"/>
<path d="M3240 2600 c0 -5 7 -10 15 -10 8 0 15 5 15 10 0 6 -7 10 -15 10 -8 0
-15 -4 -15 -10z"/>
<path d="M3290 2600 c0 -5 7 -10 15 -10 8 0 15 5 15 10 0 6 -7 10 -15 10 -8 0
-15 -4 -15 -10z"/>
<path d="M3350 2600 c0 -5 7 -10 15 -10 8 0 15 5 15 10 0 6 -7 10 -15 10 -8 0
-15 -4 -15 -10z"/>
<path d="M3410 2600 c0 -5 5 -10 10 -10 6 0 10 5 10 10 0 6 -4 10 -10 10 -5 0
-10 -4 -10 -10z"/>
<path d="M3455 2601 c-3 -5 -1 -12 5 -16 12 -7 30 2 30 16 0 12 -27 12 -35 0z"/>
<path d="M3510 2600 c0 -5 7 -10 15 -10 8 0 15 5 15 10 0 6 -7 10 -15 10 -8 0
-15 -4 -15 -10z"/>
<path d="M3570 2600 c0 -5 7 -10 15 -10 8 0 15 5 15 10 0 6 -7 10 -15 10 -8 0
-15 -4 -15 -10z"/>
<path d="M1380 2580 c0 -5 7 -10 15 -10 8 0 15 5 15 10 0 6 -7 10 -15 10 -8 0
-15 -4 -15 -10z"/>
<path d="M1430 2580 c0 -5 5 -10 10 -10 6 0 10 5 10 10 0 6 -4 10 -10 10 -5 0
-10 -4 -10 -10z"/>
<path d="M1470 2575 c0 -9 6 -12 15 -9 8 4 15 10 15 15 0 5 -7 9 -15 9 -8 0
-15 -7 -15 -15z"/>
<path d="M1520 2580 c0 -5 5 -10 10 -10 6 0 10 5 10 10 0 6 -4 10 -10 10 -5 0
-10 -4 -10 -10z"/>
<path d="M1560 2580 c0 -5 7 -10 16 -10 8 0 12 5 9 10 -3 6 -10 10 -16 10 -5
0 -9 -4 -9 -10z"/>
<path d="M1610 2580 c0 -5 5 -10 10 -10 6 0 10 5 10 10 0 6 -4 10 -10 10 -5 0
-10 -4 -10 -10z"/>
<path d="M1660 2580 c0 -5 5 -10 10 -10 6 0 10 5 10 10 0 6 -4 10 -10 10 -5 0
-10 -4 -10 -10z"/>
<path d="M1706 2581 c-4 -7 -5 -15 -2 -18 9 -9 19 4 14 18 -4 11 -6 11 -12 0z"/>
<path d="M1755 2570 c3 -5 8 -10 11 -10 2 0 4 5 4 10 0 6 -5 10 -11 10 -5 0
-7 -4 -4 -10z"/>
<path d="M1790 2570 c0 -5 4 -10 9 -10 6 0 13 5 16 10 3 6 -1 10 -9 10 -9 0
-16 -4 -16 -10z"/>
<path d="M1830 2570 c0 -5 7 -10 15 -10 8 0 15 5 15 10 0 6 -7 10 -15 10 -8 0
-15 -4 -15 -10z"/>
<path d="M2471 2435 c0 -5 6 -21 14 -35 8 -14 14 -20 14 -15 0 6 -6 21 -14 35
-8 14 -14 21 -14 15z"/>
<path d="M2542 2405 c-17 -37 -14 -45 4 -12 9 16 14 31 11 33 -2 2 -9 -7 -15
-21z"/>
<path d="M1596 2071 c-4 -7 -5 -15 -2 -18 9 -9 19 4 14 18 -4 11 -6 11 -12 0z"/>
<path d="M1630 2070 c0 -5 5 -10 10 -10 6 0 10 5 10 10 0 6 -4 10 -10 10 -5 0
-10 -4 -10 -10z"/>
<path d="M1675 2071 c-6 -11 9 -23 19 -14 9 9 7 23 -3 23 -6 0 -12 -4 -16 -9z"/>
<path d="M1712 2069 c2 -6 8 -10 13 -10 5 0 11 4 13 10 2 6 -4 11 -13 11 -9 0
-15 -5 -13 -11z"/>
<path d="M1756 2071 c-4 -5 -2 -12 3 -15 5 -4 12 -2 15 3 4 5 2 12 -3 15 -5 4
-12 2 -15 -3z"/>
<path d="M1800 2065 c0 -8 5 -15 10 -15 6 0 10 7 10 15 0 8 -4 15 -10 15 -5 0
-10 -7 -10 -15z"/>
<path d="M1420 2060 c0 -5 7 -10 15 -10 8 0 15 5 15 10 0 6 -7 10 -15 10 -8 0
-15 -4 -15 -10z"/>
<path d="M1470 2054 c0 -8 5 -12 10 -9 6 4 8 11 5 16 -9 14 -15 11 -15 -7z"/>
<path d="M1505 2060 c-3 -5 1 -10 10 -10 9 0 13 5 10 10 -3 6 -8 10 -10 10 -2
0 -7 -4 -10 -10z"/>
<path d="M1550 2060 c0 -5 5 -10 10 -10 6 0 10 5 10 10 0 6 -4 10 -10 10 -5 0
-10 -4 -10 -10z"/>
<path d="M1380 2050 c0 -5 5 -10 10 -10 6 0 10 5 10 10 0 6 -4 10 -10 10 -5 0
-10 -4 -10 -10z"/>
<path d="M1840 2050 c0 -5 5 -10 10 -10 6 0 10 5 10 10 0 6 -4 10 -10 10 -5 0
-10 -4 -10 -10z"/>
<path d="M3160 2025 c0 -8 7 -15 15 -15 8 0 15 7 15 15 0 8 -7 15 -15 15 -8 0
-15 -7 -15 -15z"/>
<path d="M3215 2029 c-4 -6 -5 -13 -2 -16 7 -7 27 6 27 18 0 12 -17 12 -25 -2z"/>
<path d="M3265 2029 c-4 -6 -5 -13 -2 -16 7 -7 27 6 27 18 0 12 -17 12 -25 -2z"/>
<path d="M3316 2033 c-11 -11 -6 -23 9 -23 8 0 15 4 15 9 0 13 -16 22 -24 14z"/>
<path d="M3355 2031 c-3 -5 -1 -12 5 -16 12 -7 30 2 30 16 0 12 -27 12 -35 0z"/>
<path d="M3416 2033 c-11 -11 -6 -23 9 -23 8 0 15 4 15 9 0 13 -16 22 -24 14z"/>
<path d="M3465 2029 c-10 -15 1 -23 20 -15 9 3 13 10 10 16 -8 13 -22 13 -30
-1z"/>
<path d="M3520 2024 c0 -9 5 -14 12 -12 18 6 21 28 4 28 -9 0 -16 -7 -16 -16z"/>
<path d="M3570 2030 c0 -5 7 -10 15 -10 8 0 15 5 15 10 0 6 -7 10 -15 10 -8 0
-15 -4 -15 -10z"/>
<path d="M1870 2010 c0 -5 5 -10 10 -10 6 0 10 5 10 10 0 6 -4 10 -10 10 -5 0
-10 -4 -10 -10z"/>
<path d="M3130 1990 c0 -5 7 -10 15 -10 8 0 15 5 15 10 0 6 -7 10 -15 10 -8 0
-15 -4 -15 -10z"/>
<path d="M1890 1970 c0 -5 7 -10 15 -10 8 0 15 5 15 10 0 6 -7 10 -15 10 -8 0
-15 -4 -15 -10z"/>
<path d="M3110 1950 c0 -5 7 -10 15 -10 8 0 15 5 15 10 0 6 -7 10 -15 10 -8 0
-15 -4 -15 -10z"/>
<path d="M1920 1930 c0 -5 4 -10 9 -10 6 0 13 5 16 10 3 6 -1 10 -9 10 -9 0
-16 -4 -16 -10z"/>
<path d="M3093 1923 c-18 -6 -16 -23 1 -23 17 0 30 16 19 23 -5 2 -14 2 -20 0z"/>
<path d="M1955 1890 c-3 -5 1 -10 9 -10 9 0 16 5 16 10 0 6 -4 10 -9 10 -6 0
-13 -4 -16 -10z"/>
<path d="M3057 1873 c-12 -11 -8 -23 8 -23 8 0 15 7 15 15 0 16 -12 20 -23 8z"/>
<path d="M1990 1850 c0 -5 4 -10 9 -10 6 0 13 5 16 10 3 6 -1 10 -9 10 -9 0
-16 -4 -16 -10z"/>
<path d="M2030 1816 c0 -9 7 -16 16 -16 9 0 14 5 12 12 -6 18 -28 21 -28 4z"/>
<path d="M3000 1820 c0 -5 9 -10 20 -10 11 0 20 5 20 10 0 6 -9 10 -20 10 -11
0 -20 -4 -20 -10z"/>
<path d="M2967 1785 c-8 -18 11 -31 25 -17 11 11 3 32 -12 32 -4 0 -10 -7 -13
-15z"/>
<path d="M2070 1770 c0 -5 4 -10 9 -10 6 0 13 5 16 10 3 6 -1 10 -9 10 -9 0
-16 -4 -16 -10z"/>
<path d="M2105 1751 c-7 -12 12 -24 25 -16 11 7 4 25 -10 25 -5 0 -11 -4 -15
-9z"/>
<path d="M2920 1740 c0 -5 7 -10 15 -10 8 0 15 5 15 10 0 6 -7 10 -15 10 -8 0
-15 -4 -15 -10z"/>
<path d="M2152 1721 c2 -7 7 -12 11 -12 12 1 9 15 -3 20 -7 2 -11 -2 -8 -8z"/>
<path d="M2877 1724 c-8 -8 1 -24 14 -24 5 0 9 7 9 15 0 15 -12 20 -23 9z"/>
<path d="M2200 1690 c0 -5 4 -10 9 -10 6 0 13 5 16 10 3 6 -1 10 -9 10 -9 0
-16 -4 -16 -10z"/>
<path d="M2825 1689 c-4 -6 -5 -13 -2 -16 7 -7 27 6 27 18 0 12 -17 12 -25 -2z"/>
<path d="M2250 1674 c0 -9 5 -14 12 -12 18 6 21 28 4 28 -9 0 -16 -7 -16 -16z"/>
<path d="M2760 1665 c0 -8 7 -15 15 -15 8 0 15 7 15 15 0 8 -7 15 -15 15 -8 0
-15 -7 -15 -15z"/>
<path d="M2300 1655 c0 -8 4 -15 9 -15 5 0 11 7 15 15 3 9 0 15 -9 15 -8 0
-15 -7 -15 -15z"/>
<path d="M2350 1651 c0 -6 5 -13 10 -16 6 -3 10 1 10 9 0 9 -4 16 -10 16 -5 0
-10 -4 -10 -9z"/>
<path d="M2712 1649 c2 -6 8 -10 13 -10 5 0 11 4 13 10 2 6 -4 11 -13 11 -9 0
-15 -5 -13 -11z"/>
<path d="M2392 1639 c2 -6 8 -10 13 -10 5 0 11 4 13 10 2 6 -4 11 -13 11 -9 0
-15 -5 -13 -11z"/>
<path d="M2447 1644 c-8 -8 1 -24 14 -24 5 0 9 7 9 15 0 15 -12 20 -23 9z"/>
<path d="M2493 1628 c2 -7 10 -13 17 -13 7 0 15 6 18 13 2 7 -5 12 -18 12 -13
0 -20 -5 -17 -12z"/>
<path d="M2550 1625 c0 -8 7 -15 15 -15 8 0 15 7 15 15 0 8 -7 15 -15 15 -8 0
-15 -7 -15 -15z"/>
<path d="M2600 1630 c0 -5 7 -10 15 -10 8 0 15 5 15 10 0 6 -7 10 -15 10 -8 0
-15 -4 -15 -10z"/>
<path d="M2650 1630 c0 -5 6 -10 14 -10 8 0 18 5 21 10 3 6 -3 10 -14 10 -12
0 -21 -4 -21 -10z"/>
<path d="M3810 3295 c-66 -22 -132 -75 -157 -127 -57 -114 -1 -258 114 -292
18 -6 23 -1 34 31 9 28 9 38 0 41 -31 10 -69 55 -75 87 -15 81 71 164 169 165
40 0 56 -5 77 -25 26 -24 45 -76 33 -94 -5 -9 4 -13 69 -26 17 -3 18 2 14 59
-5 82 -38 134 -103 166 -59 29 -118 34 -175 15z"/>
<path d="M927 3179 l-28 -51 77 -82 c43 -44 92 -95 109 -112 16 -17 54 -56 84
-87 l54 -55 -33 1 -33 2 -19 -82 c-11 -46 -23 -83 -27 -83 -4 0 -86 18 -181
40 -95 22 -174 39 -175 38 -5 -7 -24 -93 -21 -95 4 -4 198 -51 339 -83 55 -12
102 -18 106 -14 4 5 20 68 35 139 16 72 38 149 49 172 l22 42 -40 41 -40 41
30 57 c32 61 33 61 110 47 40 -7 40 -7 63 39 16 34 19 48 10 51 -21 7 -434 85
-449 85 -8 0 -27 -23 -42 -51z m183 -66 c36 -9 67 -18 69 -19 6 -5 -31 -84
-38 -84 -3 1 -37 31 -76 67 -53 49 -64 64 -45 59 14 -3 54 -14 90 -23z"/>
<path d="M3740 2838 c0 -7 5 -30 11 -50 l10 -38 57 0 58 0 12 -58 c16 -80 17
-77 -33 -106 -25 -15 -45 -29 -45 -32 0 -3 5 -25 11 -50 9 -34 15 -44 27 -39
9 3 101 58 205 122 l189 116 -6 38 c-14 91 1 84 -228 97 -254 15 -268 15 -268
0z m335 -133 c-44 -25 -83 -45 -87 -45 -7 0 -28 56 -28 76 0 11 22 14 98 14
l97 -1 -80 -44z"/>
<path d="M922 2235 c-68 -7 -126 -15 -129 -18 -3 -3 -1 -52 3 -109 l9 -103 29
-3 c40 -5 46 5 37 69 -9 72 -6 79 35 79 33 0 34 -1 34 -42 0 -56 11 -70 46
-66 29 3 29 4 26 61 l-4 57 30 0 c28 0 29 -2 36 -62 3 -34 8 -63 10 -66 3 -2
19 -1 36 3 l31 7 -6 56 c-3 32 -8 78 -11 105 l-6 47 -41 -1 c-23 -1 -97 -7
-165 -14z"/>
<path d="M3883 2223 c-13 -19 -18 -47 -18 -95 0 -85 20 -111 88 -112 52 -1 78
18 109 78 29 57 45 71 63 56 21 -17 19 -47 -6 -87 l-21 -34 22 -24 c29 -31 52
-20 74 35 29 72 16 155 -29 184 -35 23 -96 20 -123 -4 -12 -12 -34 -43 -48
-71 -17 -35 -30 -49 -42 -47 -23 4 -26 40 -7 78 16 31 16 33 -4 51 -27 25 -37
24 -58 -8z"/>
<path d="M1235 1561 l-40 -79 -55 -6 c-160 -19 -156 -17 -116 -62 23 -27 25
-28 80 -18 31 6 56 7 56 3 0 -5 -13 -29 -30 -55 -29 -46 -29 -48 -12 -76 32
-56 37 -53 83 36 48 94 35 86 172 101 32 4 57 10 55 13 -2 4 -10 19 -17 35
-15 29 -37 33 -104 18 l-37 -9 31 54 31 54 -22 35 c-12 19 -25 35 -28 35 -4 0
-25 -36 -47 -79z"/>
<path d="M3711 1599 c-45 -17 -90 -88 -91 -142 0 -30 7 -45 29 -68 39 -39 73
-37 145 6 65 39 81 42 90 19 5 -12 -8 -30 -38 -60 -43 -40 -45 -45 -35 -74
l11 -30 41 22 c99 55 129 183 54 228 -46 29 -80 25 -142 -16 -53 -36 -85 -39
-85 -10 0 8 15 27 33 42 50 42 42 103 -12 83z"/>
<path d="M1729 1098 c-9 -18 -35 -69 -59 -113 -23 -44 -51 -96 -62 -115 l-18
-35 27 -22 c16 -13 33 -23 38 -23 6 0 21 22 34 50 l23 49 39 -19 c72 -37 138
-21 170 42 10 20 19 45 19 55 0 37 -40 82 -102 117 -92 51 -92 51 -109 14z
m124 -113 c16 -40 -25 -70 -72 -52 -34 12 -34 30 -2 73 14 20 19 21 42 8 15
-7 29 -20 32 -29z"/>
<path d="M3165 1085 c-44 -25 -84 -46 -90 -48 -5 -2 13 -44 41 -93 28 -49 66
-117 84 -151 l34 -61 60 30 c77 39 136 76 136 86 0 4 -8 17 -18 30 l-18 23
-59 -32 -58 -32 -18 24 c-10 13 -19 26 -19 30 0 3 22 16 50 30 55 26 58 33 32
67 l-18 23 -44 -25 c-55 -32 -54 -32 -68 -2 -12 28 -11 30 56 66 23 13 42 28
42 34 -1 15 -25 46 -36 46 -5 0 -45 -21 -89 -45z"/>
<path d="M2390 823 c0 -49 3 -125 7 -170 l6 -83 38 0 39 0 0 60 c0 51 3 60 18
60 12 0 29 -20 49 -57 30 -57 32 -58 77 -61 25 -2 46 0 46 3 0 4 -16 34 -35
66 -19 33 -35 62 -35 64 0 2 12 16 26 30 23 23 26 32 21 78 -3 39 -11 56 -31
74 -24 21 -37 23 -127 23 l-99 0 0 -87z m172 5 c20 -33 -7 -68 -53 -68 -28 0
-29 2 -29 46 l0 47 37 -6 c20 -4 40 -12 45 -19z"/>
</g>
</svg>
